<mxfile host="app.diagrams.net" modified="2023-11-02T16:20:18.885Z" agent="Mozilla/5.0 (Macintosh; Intel Mac OS X 10_15_7) AppleWebKit/537.36 (KHTML, like Gecko) Chrome/119.0.0.0 Safari/537.36" etag="-7qksuJOCRgKanPzbox8" version="22.0.8" type="device" pages="4">
  <diagram id="4rBeRc0VbkWU1G6_L1bp" name="gx-cloud-architecture">
    <mxGraphModel dx="993" dy="1086" grid="1" gridSize="10" guides="1" tooltips="1" connect="1" arrows="1" fold="1" page="1" pageScale="1" pageWidth="1100" pageHeight="850" math="0" shadow="0">
      <root>
        <mxCell id="0" />
        <mxCell id="1" parent="0" />
        <mxCell id="TUDYuU7qML7kbOazX5dM-1" value="" style="rounded=0;whiteSpace=wrap;html=1;strokeColor=#A6A8AB;fillColor=none;dashed=1;perimeterSpacing=0;dashPattern=8 8;" parent="1" vertex="1">
          <mxGeometry x="260" y="410" width="460" height="80" as="geometry" />
        </mxCell>
        <mxCell id="TUDYuU7qML7kbOazX5dM-2" value="" style="rounded=0;whiteSpace=wrap;html=1;strokeColor=#A6A8AB;fillColor=none;" parent="1" vertex="1">
          <mxGeometry x="160" y="40" width="560" height="330" as="geometry" />
        </mxCell>
        <mxCell id="TUDYuU7qML7kbOazX5dM-3" value="" style="rounded=1;whiteSpace=wrap;html=1;strokeWidth=2;fillColor=#FF9B67;" parent="1" vertex="1">
          <mxGeometry x="300" y="110" width="300" height="160" as="geometry" />
        </mxCell>
        <mxCell id="TUDYuU7qML7kbOazX5dM-4" value="GX Agent" style="rounded=1;whiteSpace=wrap;html=1;glass=0;strokeWidth=2;fillColor=#D0D2D3;" parent="1" vertex="1">
          <mxGeometry x="580" y="430" width="120" height="40" as="geometry" />
        </mxCell>
        <mxCell id="TUDYuU7qML7kbOazX5dM-6" value="GX OSS Client" style="rounded=1;whiteSpace=wrap;html=1;fillColor=#d0d2d3;strokeWidth=2;" parent="1" vertex="1">
          <mxGeometry x="390" y="430" width="120" height="40" as="geometry" />
        </mxCell>
        <mxCell id="TUDYuU7qML7kbOazX5dM-8" value="GX Cloud Data Storage:&lt;br&gt;Configurations, Metadata, and History" style="text;html=1;strokeColor=none;fillColor=none;align=center;verticalAlign=middle;whiteSpace=wrap;rounded=0;" parent="1" vertex="1">
          <mxGeometry x="300" y="110" width="300" height="50" as="geometry" />
        </mxCell>
        <mxCell id="TUDYuU7qML7kbOazX5dM-9" value="GX Cloud&lt;br&gt;Web UI" style="rounded=1;whiteSpace=wrap;html=1;strokeWidth=2;fillColor=#FF9B67;" parent="1" vertex="1">
          <mxGeometry x="180" y="60" width="90" height="290" as="geometry" />
        </mxCell>
        <mxCell id="TUDYuU7qML7kbOazX5dM-11" value="GX Cloud API" style="rounded=1;whiteSpace=wrap;html=1;strokeWidth=2;fillColor=#FF9B67;" parent="1" vertex="1">
          <mxGeometry x="390" y="310" width="120" height="40" as="geometry" />
        </mxCell>
        <mxCell id="TUDYuU7qML7kbOazX5dM-12" value="" style="endArrow=blockThin;startArrow=blockThin;html=1;rounded=0;exitX=0.5;exitY=1;exitDx=0;exitDy=0;edgeStyle=orthogonalEdgeStyle;entryX=0.5;entryY=0;entryDx=0;entryDy=0;startFill=1;endFill=1;" parent="1" source="TUDYuU7qML7kbOazX5dM-11" target="TUDYuU7qML7kbOazX5dM-6" edge="1">
          <mxGeometry width="50" height="50" relative="1" as="geometry">
            <mxPoint x="260" y="619.5" as="sourcePoint" />
            <mxPoint x="350" y="420" as="targetPoint" />
            <Array as="points" />
          </mxGeometry>
        </mxCell>
        <mxCell id="TUDYuU7qML7kbOazX5dM-14" value="&lt;b&gt;GX Cloud&lt;/b&gt;" style="text;html=1;strokeColor=none;fillColor=none;align=left;verticalAlign=middle;whiteSpace=wrap;rounded=0;spacing=8;" parent="1" vertex="1">
          <mxGeometry x="650" y="40" width="70" height="40" as="geometry" />
        </mxCell>
        <mxCell id="TUDYuU7qML7kbOazX5dM-15" value="Data&lt;br&gt;Sources" style="rounded=1;whiteSpace=wrap;html=1;fillColor=#fcefc3;" parent="1" vertex="1">
          <mxGeometry x="320" y="165" width="80" height="40" as="geometry" />
        </mxCell>
        <mxCell id="TUDYuU7qML7kbOazX5dM-16" value="Data&lt;br&gt;Assets" style="rounded=1;whiteSpace=wrap;html=1;fillColor=#FCEFC3;" parent="1" vertex="1">
          <mxGeometry x="320" y="215" width="80" height="40" as="geometry" />
        </mxCell>
        <mxCell id="TUDYuU7qML7kbOazX5dM-17" value="Checkpoints" style="rounded=1;whiteSpace=wrap;html=1;fillColor=#FCEFC3;" parent="1" vertex="1">
          <mxGeometry x="410" y="215" width="80" height="40" as="geometry" />
        </mxCell>
        <mxCell id="TUDYuU7qML7kbOazX5dM-18" value="Expectation Suites" style="rounded=1;whiteSpace=wrap;html=1;fillColor=#FCEFC3;" parent="1" vertex="1">
          <mxGeometry x="410" y="165" width="80" height="40" as="geometry" />
        </mxCell>
        <mxCell id="TUDYuU7qML7kbOazX5dM-19" value="Validation History" style="rounded=1;whiteSpace=wrap;html=1;fillColor=#FCEFC3;" parent="1" vertex="1">
          <mxGeometry x="500" y="165" width="80" height="40" as="geometry" />
        </mxCell>
        <mxCell id="TUDYuU7qML7kbOazX5dM-20" value="Descriptive Metrics" style="rounded=1;whiteSpace=wrap;html=1;fillColor=#FCEFC3;" parent="1" vertex="1">
          <mxGeometry x="500" y="215" width="80" height="40" as="geometry" />
        </mxCell>
        <mxCell id="TUDYuU7qML7kbOazX5dM-21" value="GX Cloud&lt;br&gt;Message Broker" style="rounded=1;whiteSpace=wrap;html=1;strokeWidth=2;fillColor=#FF9B67;" parent="1" vertex="1">
          <mxGeometry x="580" y="310" width="120" height="40" as="geometry" />
        </mxCell>
        <mxCell id="TUDYuU7qML7kbOazX5dM-23" value="" style="endArrow=blockThin;startArrow=blockThin;html=1;rounded=0;jumpStyle=none;startFill=1;endFill=1;exitX=0;exitY=0.5;exitDx=0;exitDy=0;" parent="1" edge="1">
          <mxGeometry width="50" height="50" relative="1" as="geometry">
            <mxPoint x="300" y="189.88" as="sourcePoint" />
            <mxPoint x="270" y="190.13" as="targetPoint" />
          </mxGeometry>
        </mxCell>
        <mxCell id="TUDYuU7qML7kbOazX5dM-24" value="" style="endArrow=blockThin;startArrow=blockThin;html=1;rounded=0;jumpStyle=none;endFill=1;startFill=1;entryX=0.5;entryY=0;entryDx=0;entryDy=0;" parent="1" target="TUDYuU7qML7kbOazX5dM-11" edge="1">
          <mxGeometry width="50" height="50" relative="1" as="geometry">
            <mxPoint x="449.75" y="270" as="sourcePoint" />
            <mxPoint x="449.75" y="300" as="targetPoint" />
          </mxGeometry>
        </mxCell>
        <mxCell id="TUDYuU7qML7kbOazX5dM-25" value="" style="endArrow=blockThin;startArrow=none;html=1;rounded=0;edgeStyle=orthogonalEdgeStyle;startFill=0;jumpStyle=arc;jumpSize=14;endFill=1;exitX=0.994;exitY=0.095;exitDx=0;exitDy=0;exitPerimeter=0;entryX=0.5;entryY=0;entryDx=0;entryDy=0;" parent="1" source="TUDYuU7qML7kbOazX5dM-9" target="TUDYuU7qML7kbOazX5dM-21" edge="1">
          <mxGeometry width="50" height="50" relative="1" as="geometry">
            <mxPoint x="310" y="70" as="sourcePoint" />
            <mxPoint x="700" y="250" as="targetPoint" />
            <Array as="points">
              <mxPoint x="270" y="90" />
              <mxPoint x="640" y="90" />
            </Array>
          </mxGeometry>
        </mxCell>
        <mxCell id="TUDYuU7qML7kbOazX5dM-26" value="" style="endArrow=blockThin;startArrow=blockThin;html=1;rounded=0;exitX=0.75;exitY=1;exitDx=0;exitDy=0;edgeStyle=orthogonalEdgeStyle;entryX=0.25;entryY=0;entryDx=0;entryDy=0;endFill=1;startFill=1;" parent="1" source="TUDYuU7qML7kbOazX5dM-11" target="TUDYuU7qML7kbOazX5dM-4" edge="1">
          <mxGeometry width="50" height="50" relative="1" as="geometry">
            <mxPoint x="420" y="360" as="sourcePoint" />
            <mxPoint x="490" y="400" as="targetPoint" />
            <Array as="points">
              <mxPoint x="480" y="390" />
              <mxPoint x="610" y="390" />
            </Array>
          </mxGeometry>
        </mxCell>
        <mxCell id="TUDYuU7qML7kbOazX5dM-27" value="&lt;b&gt;Local Environment&lt;/b&gt;" style="text;html=1;strokeColor=none;fillColor=none;align=left;verticalAlign=middle;whiteSpace=wrap;rounded=0;spacing=8;" parent="1" vertex="1">
          <mxGeometry x="260" y="410" width="90" height="50" as="geometry" />
        </mxCell>
        <mxCell id="TUDYuU7qML7kbOazX5dM-28" value="" style="endArrow=blockThin;startArrow=none;html=1;rounded=0;edgeStyle=orthogonalEdgeStyle;entryX=0.5;entryY=0;entryDx=0;entryDy=0;endFill=1;startFill=0;exitX=0.5;exitY=1;exitDx=0;exitDy=0;" parent="1" source="TUDYuU7qML7kbOazX5dM-21" target="TUDYuU7qML7kbOazX5dM-4" edge="1">
          <mxGeometry width="50" height="50" relative="1" as="geometry">
            <mxPoint x="610" y="370" as="sourcePoint" />
            <mxPoint x="640" y="420" as="targetPoint" />
            <Array as="points" />
          </mxGeometry>
        </mxCell>
      </root>
    </mxGraphModel>
  </diagram>
  <diagram id="AdkBUQRsRMOlIh0LbK3u" name="deployment-snowflake">
    <mxGraphModel dx="993" dy="1086" grid="1" gridSize="10" guides="1" tooltips="1" connect="1" arrows="1" fold="1" page="1" pageScale="1" pageWidth="1100" pageHeight="850" math="0" shadow="0">
      <root>
        <mxCell id="0" />
        <mxCell id="1" parent="0" />
        <mxCell id="T9oxZPr1RcMpwuZcRDzO-1" value="" style="rounded=0;whiteSpace=wrap;html=1;strokeColor=#929497;fillColor=none;perimeterSpacing=0;strokeWidth=1;" parent="1" vertex="1">
          <mxGeometry x="280" y="240" width="170" height="140" as="geometry" />
        </mxCell>
        <mxCell id="T9oxZPr1RcMpwuZcRDzO-2" value="" style="rounded=0;whiteSpace=wrap;html=1;strokeColor=#A6A8AB;fillColor=none;perimeterSpacing=0;" parent="1" vertex="1">
          <mxGeometry x="290" y="250" width="140" height="95" as="geometry" />
        </mxCell>
        <mxCell id="t9HsivGxSzip43qTokhW-1" value="" style="rounded=0;whiteSpace=wrap;html=1;strokeColor=#A6A8AB;fillColor=none;dashed=1;dashPattern=8 8;" parent="1" vertex="1">
          <mxGeometry x="180" y="80" width="430" height="140" as="geometry" />
        </mxCell>
        <mxCell id="T9oxZPr1RcMpwuZcRDzO-29" value="" style="rounded=0;whiteSpace=wrap;html=1;strokeColor=#A6A8AB;fillColor=none;perimeterSpacing=0;" parent="1" vertex="1">
          <mxGeometry x="490" y="240" width="100" height="140" as="geometry" />
        </mxCell>
        <mxCell id="T9oxZPr1RcMpwuZcRDzO-8" value="&lt;b&gt;Local Environment&lt;/b&gt;" style="text;html=1;strokeColor=none;fillColor=none;align=left;verticalAlign=bottom;whiteSpace=wrap;rounded=0;spacing=0;spacingTop=2;spacingLeft=6;spacingRight=6;spacingBottom=6;" parent="1" vertex="1">
          <mxGeometry x="280" y="350" width="120" height="30" as="geometry" />
        </mxCell>
        <mxCell id="T9oxZPr1RcMpwuZcRDzO-11" value="" style="shape=cylinder3;whiteSpace=wrap;html=1;boundedLbl=1;backgroundOutline=1;size=15;strokeWidth=1;fillColor=#D0D2D3;" parent="1" vertex="1">
          <mxGeometry x="510" y="257.5" width="60" height="80" as="geometry" />
        </mxCell>
        <mxCell id="T9oxZPr1RcMpwuZcRDzO-12" value="Data Sources" style="text;html=1;strokeColor=none;fillColor=none;align=center;verticalAlign=middle;whiteSpace=wrap;rounded=0;" parent="1" vertex="1">
          <mxGeometry x="510" y="297.5" width="60" height="30" as="geometry" />
        </mxCell>
        <mxCell id="T9oxZPr1RcMpwuZcRDzO-14" value="" style="endArrow=blockThin;startArrow=none;html=1;rounded=0;startFill=0;entryX=1;entryY=0.5;entryDx=0;entryDy=0;edgeStyle=orthogonalEdgeStyle;endFill=1;exitX=0;exitY=0.5;exitDx=0;exitDy=0;exitPerimeter=0;" parent="1" source="T9oxZPr1RcMpwuZcRDzO-11" target="T9oxZPr1RcMpwuZcRDzO-27" edge="1">
          <mxGeometry width="50" height="50" relative="1" as="geometry">
            <mxPoint x="489" y="326" as="sourcePoint" />
            <mxPoint x="255" y="320" as="targetPoint" />
            <Array as="points">
              <mxPoint x="480" y="290" />
              <mxPoint x="480" y="290" />
            </Array>
          </mxGeometry>
        </mxCell>
        <mxCell id="T9oxZPr1RcMpwuZcRDzO-19" value="" style="endArrow=blockThin;startArrow=blockThin;html=1;rounded=0;entryX=0.5;entryY=1;entryDx=0;entryDy=0;startFill=1;endFill=1;" parent="1" edge="1">
          <mxGeometry width="50" height="50" relative="1" as="geometry">
            <mxPoint x="239.88" y="266" as="sourcePoint" />
            <mxPoint x="239.88" y="200" as="targetPoint" />
          </mxGeometry>
        </mxCell>
        <mxCell id="T9oxZPr1RcMpwuZcRDzO-21" value="" style="endArrow=blockThin;startArrow=blockThin;html=1;rounded=0;entryX=0.5;entryY=1;entryDx=0;entryDy=0;startFill=1;endFill=1;exitX=0.5;exitY=0;exitDx=0;exitDy=0;" parent="1" source="T9oxZPr1RcMpwuZcRDzO-27" edge="1">
          <mxGeometry width="50" height="50" relative="1" as="geometry">
            <mxPoint x="370" y="230" as="sourcePoint" />
            <mxPoint x="360" y="200" as="targetPoint" />
          </mxGeometry>
        </mxCell>
        <mxCell id="T9oxZPr1RcMpwuZcRDzO-22" value="" style="endArrow=none;startArrow=blockThin;html=1;rounded=0;startFill=1;endFill=0;exitX=0.75;exitY=0;exitDx=0;exitDy=0;edgeStyle=orthogonalEdgeStyle;entryX=0.5;entryY=1;entryDx=0;entryDy=0;" parent="1" source="T9oxZPr1RcMpwuZcRDzO-27" target="t9HsivGxSzip43qTokhW-6" edge="1">
          <mxGeometry width="50" height="50" relative="1" as="geometry">
            <mxPoint x="510" y="290" as="sourcePoint" />
            <mxPoint x="495" y="200" as="targetPoint" />
            <Array as="points">
              <mxPoint x="385" y="230" />
              <mxPoint x="515" y="230" />
            </Array>
          </mxGeometry>
        </mxCell>
        <mxCell id="T9oxZPr1RcMpwuZcRDzO-26" value="&lt;b&gt;Docker&lt;/b&gt;" style="text;html=1;strokeColor=none;fillColor=none;align=left;verticalAlign=bottom;whiteSpace=wrap;rounded=0;spacing=0;spacingTop=2;spacingLeft=6;spacingRight=6;spacingBottom=6;" parent="1" vertex="1">
          <mxGeometry x="290" y="315" width="60" height="30" as="geometry" />
        </mxCell>
        <mxCell id="T9oxZPr1RcMpwuZcRDzO-27" value="GX Agent" style="rounded=1;whiteSpace=wrap;html=1;glass=0;strokeWidth=1;fillColor=#D0D2D3;" parent="1" vertex="1">
          <mxGeometry x="310" y="270" width="100" height="40" as="geometry" />
        </mxCell>
        <mxCell id="T9oxZPr1RcMpwuZcRDzO-28" value="" style="shape=mxgraph.signs.nature.snowflake;html=1;pointerEvents=1;fillColor=#000000;strokeColor=none;verticalLabelPosition=bottom;verticalAlign=top;align=center;" parent="1" vertex="1">
          <mxGeometry x="531.12" y="261.5" width="17.75" height="20" as="geometry" />
        </mxCell>
        <mxCell id="T9oxZPr1RcMpwuZcRDzO-30" value="&lt;b&gt;Snowflake&lt;/b&gt;" style="text;html=1;strokeColor=none;fillColor=none;align=center;verticalAlign=bottom;whiteSpace=wrap;rounded=0;spacing=0;spacingTop=2;spacingLeft=6;spacingRight=6;spacingBottom=6;" parent="1" vertex="1">
          <mxGeometry x="490" y="350" width="100" height="30" as="geometry" />
        </mxCell>
        <mxCell id="T9oxZPr1RcMpwuZcRDzO-31" value="You" style="sketch=0;aspect=fixed;pointerEvents=1;shadow=0;dashed=0;html=1;strokeColor=none;labelPosition=center;verticalLabelPosition=bottom;verticalAlign=top;align=center;fillColor=#404041;shape=mxgraph.azure.user" parent="1" vertex="1">
          <mxGeometry x="219.2" y="270" width="37.6" height="40" as="geometry" />
        </mxCell>
        <mxCell id="t9HsivGxSzip43qTokhW-2" value="GX Cloud&lt;br&gt;Web UI" style="rounded=1;whiteSpace=wrap;html=1;strokeWidth=1;fillColor=#FF9B67;" parent="1" vertex="1">
          <mxGeometry x="200" y="90" width="80" height="110" as="geometry" />
        </mxCell>
        <mxCell id="t9HsivGxSzip43qTokhW-3" value="&lt;b&gt;GX Cloud&lt;/b&gt;" style="text;html=1;strokeColor=none;fillColor=none;align=right;verticalAlign=top;whiteSpace=wrap;rounded=0;spacing=0;spacingLeft=6;spacingTop=2;spacingRight=6;" parent="1" vertex="1">
          <mxGeometry x="540" y="80" width="70" height="30" as="geometry" />
        </mxCell>
        <mxCell id="t9HsivGxSzip43qTokhW-4" value="GX Cloud Data Storage" style="rounded=1;whiteSpace=wrap;html=1;strokeWidth=1;fillColor=#FF9B67;" parent="1" vertex="1">
          <mxGeometry x="310" y="120" width="160" height="30" as="geometry" />
        </mxCell>
        <mxCell id="t9HsivGxSzip43qTokhW-5" value="GX Cloud API" style="rounded=1;whiteSpace=wrap;html=1;strokeWidth=1;fillColor=#FF9B67;" parent="1" vertex="1">
          <mxGeometry x="310" y="170" width="100" height="30" as="geometry" />
        </mxCell>
        <mxCell id="t9HsivGxSzip43qTokhW-6" value="GX Cloud Message Broker" style="rounded=1;whiteSpace=wrap;html=1;strokeWidth=1;fillColor=#FF9B67;" parent="1" vertex="1">
          <mxGeometry x="440" y="170" width="150" height="30" as="geometry" />
        </mxCell>
        <mxCell id="t9HsivGxSzip43qTokhW-7" value="" style="endArrow=blockThin;html=1;rounded=0;startArrow=blockThin;startFill=1;endFill=1;endSize=3;startSize=3;entryX=0;entryY=0.5;entryDx=0;entryDy=0;" parent="1" target="t9HsivGxSzip43qTokhW-4" edge="1">
          <mxGeometry width="50" height="50" relative="1" as="geometry">
            <mxPoint x="280" y="134.87" as="sourcePoint" />
            <mxPoint x="300" y="134.87" as="targetPoint" />
          </mxGeometry>
        </mxCell>
        <mxCell id="t9HsivGxSzip43qTokhW-8" value="" style="endArrow=blockThin;html=1;rounded=0;edgeStyle=orthogonalEdgeStyle;endFill=1;endSize=3;jumpStyle=arc;jumpSize=6;exitX=1;exitY=0.25;exitDx=0;exitDy=0;entryX=0.5;entryY=0;entryDx=0;entryDy=0;" parent="1" source="t9HsivGxSzip43qTokhW-2" target="t9HsivGxSzip43qTokhW-6" edge="1">
          <mxGeometry width="50" height="50" relative="1" as="geometry">
            <mxPoint x="500" y="-10" as="sourcePoint" />
            <mxPoint x="650" y="150" as="targetPoint" />
            <Array as="points">
              <mxPoint x="280" y="105" />
              <mxPoint x="515" y="105" />
            </Array>
          </mxGeometry>
        </mxCell>
        <mxCell id="t9HsivGxSzip43qTokhW-9" value="" style="endArrow=blockThin;startArrow=blockThin;html=1;rounded=0;startFill=1;endFill=1;endSize=3;startSize=3;" parent="1" edge="1">
          <mxGeometry width="50" height="50" relative="1" as="geometry">
            <mxPoint x="359.75" y="170" as="sourcePoint" />
            <mxPoint x="359.75" y="150" as="targetPoint" />
          </mxGeometry>
        </mxCell>
      </root>
    </mxGraphModel>
  </diagram>
  <diagram name="deployment-gx-oss-local" id="99DBTO8NIz74rKfxcll5">
    <mxGraphModel dx="993" dy="1086" grid="1" gridSize="10" guides="1" tooltips="1" connect="1" arrows="1" fold="1" page="1" pageScale="1" pageWidth="1100" pageHeight="850" math="0" shadow="0">
      <root>
        <mxCell id="eq-3WCoerHAYVFcHPi5h-0" />
        <mxCell id="eq-3WCoerHAYVFcHPi5h-1" parent="eq-3WCoerHAYVFcHPi5h-0" />
        <mxCell id="oQLRixCJjy86TP2jlr9x-3" value="" style="rounded=0;whiteSpace=wrap;html=1;strokeColor=#a6a8ab;fillColor=none;dashed=1;dashPattern=8 8;" parent="eq-3WCoerHAYVFcHPi5h-1" vertex="1">
          <mxGeometry x="190" y="70" width="430" height="140" as="geometry" />
        </mxCell>
        <mxCell id="oQLRixCJjy86TP2jlr9x-1" value="" style="rounded=0;whiteSpace=wrap;html=1;strokeColor=#a6a8ab;fillColor=none;perimeterSpacing=0;" parent="eq-3WCoerHAYVFcHPi5h-1" vertex="1">
          <mxGeometry x="290" y="230" width="410" height="140" as="geometry" />
        </mxCell>
        <mxCell id="oQLRixCJjy86TP2jlr9x-2" value="" style="rounded=0;whiteSpace=wrap;html=1;strokeColor=#a6a8ab;fillColor=none;perimeterSpacing=0;" parent="eq-3WCoerHAYVFcHPi5h-1" vertex="1">
          <mxGeometry x="460" y="240" width="140" height="95" as="geometry" />
        </mxCell>
        <mxCell id="oQLRixCJjy86TP2jlr9x-4" value="GX Cloud&lt;br&gt;Web UI" style="rounded=1;whiteSpace=wrap;html=1;strokeWidth=1;fillColor=#FF9B67;" parent="eq-3WCoerHAYVFcHPi5h-1" vertex="1">
          <mxGeometry x="210" y="80" width="80" height="110" as="geometry" />
        </mxCell>
        <mxCell id="oQLRixCJjy86TP2jlr9x-5" value="&lt;b&gt;GX Cloud&lt;/b&gt;" style="text;html=1;strokeColor=none;fillColor=none;align=right;verticalAlign=top;whiteSpace=wrap;rounded=0;spacing=0;spacingLeft=6;spacingTop=2;spacingRight=6;" parent="eq-3WCoerHAYVFcHPi5h-1" vertex="1">
          <mxGeometry x="550" y="70" width="70" height="30" as="geometry" />
        </mxCell>
        <mxCell id="oQLRixCJjy86TP2jlr9x-6" value="&lt;b&gt;Local Environment&lt;/b&gt;" style="text;html=1;strokeColor=none;fillColor=none;align=left;verticalAlign=bottom;whiteSpace=wrap;rounded=0;spacing=0;spacingTop=2;spacingLeft=6;spacingRight=6;spacingBottom=6;" parent="eq-3WCoerHAYVFcHPi5h-1" vertex="1">
          <mxGeometry x="290" y="340" width="120" height="30" as="geometry" />
        </mxCell>
        <mxCell id="oQLRixCJjy86TP2jlr9x-7" value="GX Cloud Data Storage" style="rounded=1;whiteSpace=wrap;html=1;strokeWidth=1;fillColor=#FF9B67;" parent="eq-3WCoerHAYVFcHPi5h-1" vertex="1">
          <mxGeometry x="320" y="110" width="160" height="30" as="geometry" />
        </mxCell>
        <mxCell id="oQLRixCJjy86TP2jlr9x-8" value="GX Cloud API" style="rounded=1;whiteSpace=wrap;html=1;strokeWidth=1;fillColor=#FF9B67;" parent="eq-3WCoerHAYVFcHPi5h-1" vertex="1">
          <mxGeometry x="320" y="160" width="100" height="30" as="geometry" />
        </mxCell>
        <mxCell id="oQLRixCJjy86TP2jlr9x-9" value="" style="shape=cylinder3;whiteSpace=wrap;html=1;boundedLbl=1;backgroundOutline=1;size=15;strokeWidth=1;fillColor=#D0D2D3;" parent="eq-3WCoerHAYVFcHPi5h-1" vertex="1">
          <mxGeometry x="620" y="247.5" width="60" height="80" as="geometry" />
        </mxCell>
        <mxCell id="oQLRixCJjy86TP2jlr9x-10" value="Data Sources" style="text;html=1;strokeColor=none;fillColor=none;align=center;verticalAlign=middle;whiteSpace=wrap;rounded=0;" parent="eq-3WCoerHAYVFcHPi5h-1" vertex="1">
          <mxGeometry x="620" y="285" width="60" height="30" as="geometry" />
        </mxCell>
        <mxCell id="oQLRixCJjy86TP2jlr9x-11" value="" style="endArrow=blockThin;startArrow=none;html=1;rounded=0;startFill=0;edgeStyle=orthogonalEdgeStyle;endFill=1;exitX=0;exitY=0.5;exitDx=0;exitDy=0;exitPerimeter=0;entryX=1;entryY=0.5;entryDx=0;entryDy=0;" parent="eq-3WCoerHAYVFcHPi5h-1" source="oQLRixCJjy86TP2jlr9x-9" target="oQLRixCJjy86TP2jlr9x-20" edge="1">
          <mxGeometry width="50" height="50" relative="1" as="geometry">
            <mxPoint x="569" y="316" as="sourcePoint" />
            <mxPoint x="530" y="450" as="targetPoint" />
            <Array as="points">
              <mxPoint x="620" y="280" />
            </Array>
          </mxGeometry>
        </mxCell>
        <mxCell id="oQLRixCJjy86TP2jlr9x-12" value="GX Cloud Message Broker" style="rounded=1;whiteSpace=wrap;html=1;strokeWidth=1;fillColor=#FF9B67;" parent="eq-3WCoerHAYVFcHPi5h-1" vertex="1">
          <mxGeometry x="450" y="160" width="150" height="30" as="geometry" />
        </mxCell>
        <mxCell id="oQLRixCJjy86TP2jlr9x-14" value="" style="endArrow=blockThin;startArrow=blockThin;html=1;rounded=0;entryX=0.75;entryY=1;entryDx=0;entryDy=0;startFill=1;endFill=1;exitX=0.25;exitY=0;exitDx=0;exitDy=0;edgeStyle=orthogonalEdgeStyle;" parent="eq-3WCoerHAYVFcHPi5h-1" source="oQLRixCJjy86TP2jlr9x-20" target="oQLRixCJjy86TP2jlr9x-8" edge="1">
          <mxGeometry width="50" height="50" relative="1" as="geometry">
            <mxPoint x="360" y="280" as="sourcePoint" />
            <mxPoint x="360" y="200" as="targetPoint" />
            <Array as="points">
              <mxPoint x="505" y="220" />
              <mxPoint x="395" y="220" />
            </Array>
          </mxGeometry>
        </mxCell>
        <mxCell id="oQLRixCJjy86TP2jlr9x-15" value="" style="endArrow=none;startArrow=blockThin;html=1;rounded=0;startFill=1;endFill=0;exitX=0.5;exitY=0;exitDx=0;exitDy=0;edgeStyle=orthogonalEdgeStyle;" parent="eq-3WCoerHAYVFcHPi5h-1" edge="1">
          <mxGeometry width="50" height="50" relative="1" as="geometry">
            <mxPoint x="524.88" y="260" as="sourcePoint" />
            <mxPoint x="524.88" y="190" as="targetPoint" />
            <Array as="points" />
          </mxGeometry>
        </mxCell>
        <mxCell id="oQLRixCJjy86TP2jlr9x-16" value="" style="endArrow=blockThin;html=1;rounded=0;startArrow=blockThin;startFill=1;endFill=1;endSize=3;startSize=3;entryX=0;entryY=0.5;entryDx=0;entryDy=0;" parent="eq-3WCoerHAYVFcHPi5h-1" target="oQLRixCJjy86TP2jlr9x-7" edge="1">
          <mxGeometry width="50" height="50" relative="1" as="geometry">
            <mxPoint x="290" y="124.86999999999999" as="sourcePoint" />
            <mxPoint x="310" y="124.86999999999999" as="targetPoint" />
          </mxGeometry>
        </mxCell>
        <mxCell id="oQLRixCJjy86TP2jlr9x-18" value="" style="endArrow=blockThin;html=1;rounded=0;edgeStyle=orthogonalEdgeStyle;endFill=1;endSize=3;jumpStyle=arc;jumpSize=6;exitX=1;exitY=0.25;exitDx=0;exitDy=0;entryX=0.5;entryY=0;entryDx=0;entryDy=0;" parent="eq-3WCoerHAYVFcHPi5h-1" source="oQLRixCJjy86TP2jlr9x-4" target="oQLRixCJjy86TP2jlr9x-12" edge="1">
          <mxGeometry width="50" height="50" relative="1" as="geometry">
            <mxPoint x="510" y="-20" as="sourcePoint" />
            <mxPoint x="660" y="140" as="targetPoint" />
            <Array as="points">
              <mxPoint x="290" y="95" />
              <mxPoint x="525" y="95" />
            </Array>
          </mxGeometry>
        </mxCell>
        <mxCell id="oQLRixCJjy86TP2jlr9x-19" value="&lt;b&gt;Docker&lt;/b&gt;" style="text;html=1;strokeColor=none;fillColor=none;align=left;verticalAlign=bottom;whiteSpace=wrap;rounded=0;spacing=0;spacingTop=2;spacingLeft=6;spacingRight=6;spacingBottom=6;" parent="eq-3WCoerHAYVFcHPi5h-1" vertex="1">
          <mxGeometry x="460" y="305" width="60" height="30" as="geometry" />
        </mxCell>
        <mxCell id="oQLRixCJjy86TP2jlr9x-20" value="GX Agent" style="rounded=1;whiteSpace=wrap;html=1;glass=0;strokeWidth=1;fillColor=#D0D2D3;" parent="eq-3WCoerHAYVFcHPi5h-1" vertex="1">
          <mxGeometry x="480" y="260" width="100" height="40" as="geometry" />
        </mxCell>
        <mxCell id="oQLRixCJjy86TP2jlr9x-23" value="You" style="sketch=0;aspect=fixed;pointerEvents=1;shadow=0;dashed=0;html=1;strokeColor=none;labelPosition=center;verticalLabelPosition=bottom;verticalAlign=top;align=center;fillColor=#404041;shape=mxgraph.azure.user" parent="eq-3WCoerHAYVFcHPi5h-1" vertex="1">
          <mxGeometry x="229.2" y="260" width="37.6" height="40" as="geometry" />
        </mxCell>
        <mxCell id="oQLRixCJjy86TP2jlr9x-24" value="" style="rounded=0;whiteSpace=wrap;html=1;strokeColor=#929497;fillColor=none;perimeterSpacing=0;" parent="eq-3WCoerHAYVFcHPi5h-1" vertex="1">
          <mxGeometry x="310" y="240" width="140" height="95" as="geometry" />
        </mxCell>
        <mxCell id="oQLRixCJjy86TP2jlr9x-25" value="&lt;b&gt;Python&lt;/b&gt;" style="text;html=1;strokeColor=none;fillColor=none;align=left;verticalAlign=bottom;whiteSpace=wrap;rounded=0;spacing=0;spacingTop=2;spacingLeft=6;spacingRight=6;spacingBottom=6;" parent="eq-3WCoerHAYVFcHPi5h-1" vertex="1">
          <mxGeometry x="310" y="305" width="60" height="30" as="geometry" />
        </mxCell>
        <mxCell id="oQLRixCJjy86TP2jlr9x-26" value="GX OSS Client" style="rounded=1;whiteSpace=wrap;html=1;glass=0;strokeWidth=1;fillColor=#D0D2D3;" parent="eq-3WCoerHAYVFcHPi5h-1" vertex="1">
          <mxGeometry x="330" y="260" width="100" height="40" as="geometry" />
        </mxCell>
        <mxCell id="oQLRixCJjy86TP2jlr9x-28" value="" style="endArrow=blockThin;startArrow=blockThin;html=1;rounded=0;startFill=1;endFill=1;edgeStyle=orthogonalEdgeStyle;entryX=0;entryY=0.5;entryDx=0;entryDy=0;" parent="eq-3WCoerHAYVFcHPi5h-1" target="oQLRixCJjy86TP2jlr9x-26" edge="1">
          <mxGeometry width="50" height="50" relative="1" as="geometry">
            <mxPoint x="270" y="280" as="sourcePoint" />
            <mxPoint x="310" y="280" as="targetPoint" />
            <Array as="points">
              <mxPoint x="270" y="280" />
            </Array>
          </mxGeometry>
        </mxCell>
        <mxCell id="1DeH39sPS2AUYV1z3ZJo-0" value="" style="endArrow=blockThin;startArrow=blockThin;html=1;rounded=0;entryX=0.5;entryY=1;entryDx=0;entryDy=0;exitX=0.4;exitY=-0.025;exitDx=0;exitDy=0;exitPerimeter=0;startFill=1;endFill=1;" parent="eq-3WCoerHAYVFcHPi5h-1" source="oQLRixCJjy86TP2jlr9x-26" target="oQLRixCJjy86TP2jlr9x-8" edge="1">
          <mxGeometry width="50" height="50" relative="1" as="geometry">
            <mxPoint x="350" y="270" as="sourcePoint" />
            <mxPoint x="400" y="220" as="targetPoint" />
          </mxGeometry>
        </mxCell>
        <mxCell id="0ZklsyBmP54bOJQqsUWK-0" value="" style="endArrow=blockThin;startArrow=blockThin;html=1;rounded=0;startFill=1;endFill=1;endSize=3;startSize=3;" parent="eq-3WCoerHAYVFcHPi5h-1" edge="1">
          <mxGeometry width="50" height="50" relative="1" as="geometry">
            <mxPoint x="369.75" y="160" as="sourcePoint" />
            <mxPoint x="369.75" y="140" as="targetPoint" />
          </mxGeometry>
        </mxCell>
        <mxCell id="vha6Av57vPdu4fXda48C-0" value="" style="endArrow=blockThin;startArrow=blockThin;html=1;rounded=0;entryX=0.5;entryY=1;entryDx=0;entryDy=0;startFill=1;endFill=1;" parent="eq-3WCoerHAYVFcHPi5h-1" edge="1">
          <mxGeometry width="50" height="50" relative="1" as="geometry">
            <mxPoint x="249.88" y="255" as="sourcePoint" />
            <mxPoint x="249.88" y="190" as="targetPoint" />
          </mxGeometry>
        </mxCell>
      </root>
    </mxGraphModel>
  </diagram>
  <diagram id="6KD0Alq4c7xAnq66J7ub" name="deployment-orchestrator">
    <mxGraphModel dx="993" dy="1086" grid="1" gridSize="10" guides="1" tooltips="1" connect="1" arrows="1" fold="1" page="1" pageScale="1" pageWidth="1100" pageHeight="850" math="0" shadow="0">
      <root>
        <mxCell id="0" />
        <mxCell id="1" parent="0" />
        <mxCell id="pKo_-XbmdBcV7QkTmMUj-1" value="" style="rounded=0;whiteSpace=wrap;html=1;strokeColor=#A6A8AB;fillColor=none;perimeterSpacing=0;" parent="1" vertex="1">
          <mxGeometry x="230" y="230" width="440" height="140" as="geometry" />
        </mxCell>
        <mxCell id="pKo_-XbmdBcV7QkTmMUj-27" value="" style="shape=hexagon;perimeter=hexagonPerimeter2;whiteSpace=wrap;html=1;fixedSize=1;fillColor=none;strokeColor=#A6A8AB;" parent="1" vertex="1">
          <mxGeometry x="400" y="240" width="160" height="100" as="geometry" />
        </mxCell>
        <mxCell id="pKo_-XbmdBcV7QkTmMUj-6" value="&lt;b&gt;Local Environment&lt;/b&gt;" style="text;html=1;strokeColor=none;fillColor=none;align=left;verticalAlign=bottom;whiteSpace=wrap;rounded=0;spacing=0;spacingTop=2;spacingLeft=6;spacingRight=6;spacingBottom=6;" parent="1" vertex="1">
          <mxGeometry x="230" y="340" width="120" height="30" as="geometry" />
        </mxCell>
        <mxCell id="pKo_-XbmdBcV7QkTmMUj-9" value="" style="shape=cylinder3;whiteSpace=wrap;html=1;boundedLbl=1;backgroundOutline=1;size=15;strokeWidth=1;fillColor=#D0D2D3;" parent="1" vertex="1">
          <mxGeometry x="590" y="247.5" width="60" height="80" as="geometry" />
        </mxCell>
        <mxCell id="pKo_-XbmdBcV7QkTmMUj-10" value="Data Sources" style="text;html=1;strokeColor=none;fillColor=none;align=center;verticalAlign=middle;whiteSpace=wrap;rounded=0;" parent="1" vertex="1">
          <mxGeometry x="590" y="285" width="60" height="30" as="geometry" />
        </mxCell>
        <mxCell id="pKo_-XbmdBcV7QkTmMUj-14" value="" style="endArrow=blockThin;startArrow=blockThin;html=1;rounded=0;entryX=0.75;entryY=1;entryDx=0;entryDy=0;startFill=1;endFill=1;exitX=0.5;exitY=0;exitDx=0;exitDy=0;edgeStyle=orthogonalEdgeStyle;" parent="1" source="pKo_-XbmdBcV7QkTmMUj-20" edge="1">
          <mxGeometry width="50" height="50" relative="1" as="geometry">
            <mxPoint x="320" y="280" as="sourcePoint" />
            <mxPoint x="345" y="190" as="targetPoint" />
            <Array as="points">
              <mxPoint x="480" y="220" />
              <mxPoint x="345" y="220" />
            </Array>
          </mxGeometry>
        </mxCell>
        <mxCell id="pKo_-XbmdBcV7QkTmMUj-19" value="&lt;b&gt;Orchestrator&lt;/b&gt;" style="text;html=1;strokeColor=none;fillColor=none;align=center;verticalAlign=bottom;whiteSpace=wrap;rounded=0;spacing=0;spacingTop=2;spacingLeft=6;spacingRight=6;spacingBottom=6;" parent="1" vertex="1">
          <mxGeometry x="420" y="310" width="120" height="30" as="geometry" />
        </mxCell>
        <mxCell id="pKo_-XbmdBcV7QkTmMUj-20" value="GX OSS Client" style="rounded=1;whiteSpace=wrap;html=1;glass=0;strokeWidth=1;fillColor=#D0D2D3;" parent="1" vertex="1">
          <mxGeometry x="430" y="270" width="100" height="40" as="geometry" />
        </mxCell>
        <mxCell id="pKo_-XbmdBcV7QkTmMUj-21" value="You" style="sketch=0;aspect=fixed;pointerEvents=1;shadow=0;dashed=0;html=1;strokeColor=none;labelPosition=center;verticalLabelPosition=bottom;verticalAlign=top;align=center;fillColor=#404041;shape=mxgraph.azure.user" parent="1" vertex="1">
          <mxGeometry x="169" y="265.5" width="37.6" height="40" as="geometry" />
        </mxCell>
        <mxCell id="pKo_-XbmdBcV7QkTmMUj-22" value="" style="rounded=0;whiteSpace=wrap;html=1;strokeColor=#A6A8AB;fillColor=none;perimeterSpacing=0;" parent="1" vertex="1">
          <mxGeometry x="250" y="240" width="140" height="100" as="geometry" />
        </mxCell>
        <mxCell id="pKo_-XbmdBcV7QkTmMUj-23" value="&lt;b&gt;Python&lt;/b&gt;" style="text;html=1;strokeColor=none;fillColor=none;align=left;verticalAlign=bottom;whiteSpace=wrap;rounded=0;spacing=0;spacingTop=2;spacingLeft=6;spacingRight=6;spacingBottom=6;" parent="1" vertex="1">
          <mxGeometry x="250" y="310" width="60" height="30" as="geometry" />
        </mxCell>
        <mxCell id="pKo_-XbmdBcV7QkTmMUj-24" value="GX OSS Client" style="rounded=1;whiteSpace=wrap;html=1;glass=0;strokeWidth=1;fillColor=#D0D2D3;" parent="1" vertex="1">
          <mxGeometry x="270" y="270" width="100" height="40" as="geometry" />
        </mxCell>
        <mxCell id="pKo_-XbmdBcV7QkTmMUj-26" value="" style="endArrow=blockThin;startArrow=blockThin;html=1;rounded=0;startFill=1;endFill=1;edgeStyle=orthogonalEdgeStyle;" parent="1" edge="1">
          <mxGeometry width="50" height="50" relative="1" as="geometry">
            <mxPoint x="210" y="289.75" as="sourcePoint" />
            <mxPoint x="270" y="289.75" as="targetPoint" />
            <Array as="points" />
          </mxGeometry>
        </mxCell>
        <mxCell id="pKo_-XbmdBcV7QkTmMUj-29" value="" style="endArrow=none;startArrow=blockThin;html=1;rounded=0;startFill=1;endFill=0;" parent="1" edge="1">
          <mxGeometry width="50" height="50" relative="1" as="geometry">
            <mxPoint x="530.01" y="289.88" as="sourcePoint" />
            <mxPoint x="590.01" y="289.88" as="targetPoint" />
          </mxGeometry>
        </mxCell>
        <mxCell id="yuvy65hC9Idy5uh6YItI-1" value="" style="rounded=0;whiteSpace=wrap;html=1;strokeColor=#A6A8AB;fillColor=none;dashed=1;dashPattern=8 8;" parent="1" vertex="1">
          <mxGeometry x="140" y="70" width="430" height="140" as="geometry" />
        </mxCell>
        <mxCell id="yuvy65hC9Idy5uh6YItI-2" value="GX Cloud&lt;br&gt;Web UI" style="rounded=1;whiteSpace=wrap;html=1;strokeWidth=1;fillColor=#FF9B67;" parent="1" vertex="1">
          <mxGeometry x="160" y="80" width="80" height="110" as="geometry" />
        </mxCell>
        <mxCell id="yuvy65hC9Idy5uh6YItI-3" value="&lt;b&gt;GX Cloud&lt;/b&gt;" style="text;html=1;strokeColor=none;fillColor=none;align=right;verticalAlign=top;whiteSpace=wrap;rounded=0;spacing=0;spacingLeft=6;spacingTop=2;spacingRight=6;" parent="1" vertex="1">
          <mxGeometry x="500" y="70" width="70" height="30" as="geometry" />
        </mxCell>
        <mxCell id="yuvy65hC9Idy5uh6YItI-4" value="GX Cloud Data Storage" style="rounded=1;whiteSpace=wrap;html=1;strokeWidth=1;fillColor=#FF9B67;" parent="1" vertex="1">
          <mxGeometry x="270" y="110" width="160" height="30" as="geometry" />
        </mxCell>
        <mxCell id="yuvy65hC9Idy5uh6YItI-5" value="GX Cloud API" style="rounded=1;whiteSpace=wrap;html=1;strokeWidth=1;fillColor=#FF9B67;" parent="1" vertex="1">
          <mxGeometry x="270" y="160" width="100" height="30" as="geometry" />
        </mxCell>
        <mxCell id="yuvy65hC9Idy5uh6YItI-6" value="GX Cloud Message Broker" style="rounded=1;whiteSpace=wrap;html=1;strokeWidth=1;fillColor=#FF9B67;" parent="1" vertex="1">
          <mxGeometry x="400" y="160" width="150" height="30" as="geometry" />
        </mxCell>
        <mxCell id="yuvy65hC9Idy5uh6YItI-7" value="" style="endArrow=blockThin;html=1;rounded=0;startArrow=blockThin;startFill=1;endFill=1;endSize=3;startSize=3;entryX=0;entryY=0.5;entryDx=0;entryDy=0;" parent="1" target="yuvy65hC9Idy5uh6YItI-4" edge="1">
          <mxGeometry width="50" height="50" relative="1" as="geometry">
            <mxPoint x="240" y="124.86999999999999" as="sourcePoint" />
            <mxPoint x="260" y="124.86999999999999" as="targetPoint" />
          </mxGeometry>
        </mxCell>
        <mxCell id="yuvy65hC9Idy5uh6YItI-9" value="" style="endArrow=blockThin;html=1;rounded=0;edgeStyle=orthogonalEdgeStyle;endFill=1;endSize=3;jumpStyle=arc;jumpSize=6;exitX=1;exitY=0.25;exitDx=0;exitDy=0;entryX=0.5;entryY=0;entryDx=0;entryDy=0;" parent="1" source="yuvy65hC9Idy5uh6YItI-2" target="yuvy65hC9Idy5uh6YItI-6" edge="1">
          <mxGeometry width="50" height="50" relative="1" as="geometry">
            <mxPoint x="460" y="-20" as="sourcePoint" />
            <mxPoint x="610" y="140" as="targetPoint" />
            <Array as="points">
              <mxPoint x="240" y="95" />
              <mxPoint x="475" y="95" />
            </Array>
          </mxGeometry>
        </mxCell>
        <mxCell id="LiL0Rg9OvwGPr37xNp_3-3" value="" style="endArrow=blockThin;startArrow=blockThin;html=1;rounded=0;entryX=0.5;entryY=1;entryDx=0;entryDy=0;startFill=1;endFill=1;" parent="1" source="pKo_-XbmdBcV7QkTmMUj-24" target="yuvy65hC9Idy5uh6YItI-5" edge="1">
          <mxGeometry width="50" height="50" relative="1" as="geometry">
            <mxPoint x="230" y="260" as="sourcePoint" />
            <mxPoint x="280" y="210" as="targetPoint" />
          </mxGeometry>
        </mxCell>
        <mxCell id="LiL0Rg9OvwGPr37xNp_3-4" value="" style="endArrow=blockThin;startArrow=blockThin;html=1;rounded=0;startFill=1;endFill=1;endSize=3;startSize=3;" parent="1" edge="1">
          <mxGeometry width="50" height="50" relative="1" as="geometry">
            <mxPoint x="319.88" y="160" as="sourcePoint" />
            <mxPoint x="319.88" y="140" as="targetPoint" />
          </mxGeometry>
        </mxCell>
        <mxCell id="6jYjrEv680PqfOlAxG3I-1" value="" style="endArrow=blockThin;startArrow=blockThin;html=1;rounded=0;entryX=0.5;entryY=1;entryDx=0;entryDy=0;startFill=1;endFill=1;" parent="1" edge="1">
          <mxGeometry width="50" height="50" relative="1" as="geometry">
            <mxPoint x="190" y="260" as="sourcePoint" />
            <mxPoint x="190" y="190" as="targetPoint" />
          </mxGeometry>
        </mxCell>
      </root>
    </mxGraphModel>
  </diagram>
</mxfile>
